<svg xmlns="http://www.w3.org/2000/svg" viewBox="0 0 914.07 507"><g id="图层_2" data-name="图层 2"><g id="图层_1-2" data-name="图层 1"><path d="M12.79 249.57l3.32 1.81a17.27 17.27 0 0 0 3.53 1.62l3.22.81a11.26 11.26 0 0 1 2.92 1c1.21.74 1.37 2.32.5 4.74q-.09.49-2.72 5.84a31 31 0 0 1-1.81 2.92c-1.14 1.75-1.74 2.68-1.81 2.82q-.6.9-1 11-.41 7.76-.4 11.18v16c0 .07.1 1.31.3 3.73a14 14 0 0 1 0 3.63 10.45 10.45 0 0 1-1.61 3.42 8.28 8.28 0 0 1-2.52 2.82 9.45 9.45 0 0 1-2 1q-2.22-2.43-2.12-10.88 0-3.12.81-12.08.1-1.92 0-10.68a99.6 99.6 0 0 0-.3-10.87l-.2-1.21a29 29 0 0 1-5.44.4 29.88 29.88 0 0 1-5.44-.4 42.34 42.34 0 0 1 2.11-4.94c.94-1.88 1.75-3.45 2.42-4.73Q6 265.88 9 259.24a89.12 89.12 0 0 0 3.79-9.67zm45.11-1q2 0 6 2.12t5.1 3.81a6.83 6.83 0 0 1 .71 2.72 14.07 14.07 0 0 1-.11 3 16.61 16.61 0 0 1-2.11 3.83 24 24 0 0 1-2.32 3.32c-1.07.94-1.78 1.58-2.11 1.92a6.41 6.41 0 0 0-1.61 2.21c0 .14-.2 1.11-.61 2.92a8.14 8.14 0 0 1-1.1 2.72 6.3 6.3 0 0 1-2.12 1.51 4.39 4.39 0 0 0-2 1.61 3.87 3.87 0 0 0-.41 2.62l.21 2.62a13.89 13.89 0 0 1 4.23-.71 10.13 10.13 0 0 1 4.2 1.21 9.25 9.25 0 0 1 1.81 1.31 2.61 2.61 0 0 1 .8 2c-.13 1.21-1.68 2.49-4.63 3.83l-5.94 2.52q-.21.9-.6 6.65a29.05 29.05 0 0 1-1.11 6.34 73 73 0 0 0 10.17 5.24A76.71 76.71 0 0 0 75 317.74l5.64 1.61a34.7 34.7 0 0 1 5.44 1.72l1.41 1.2q-1.22 2.22-6.34 4a45.07 45.07 0 0 1-8.06 2 19.58 19.58 0 0 1-5.14.1 12.88 12.88 0 0 1-4.73-1.31 47.26 47.26 0 0 1-4.63-2.92L54 321.07l-8.76-6.25q-7.15-5.13-8.67-6.14c-1.07-.67-2-1.34-2.92-2q-.6.3-3.92 2.21t-3.93 2.22a6.67 6.67 0 0 1-3.63.5 12.49 12.49 0 0 1-3.32-.7 20.51 20.51 0 0 0 6-5 30.1 30.1 0 0 0 4.43-7.35c.21-.54.81-2.05 1.82-4.53s1.51-4 1.71-4.64l3.32.91c1.48.4 2.38.94 2.72 1.61s.34 1.95-.2 3.63a18.08 18.08 0 0 1-1.65 3.57q.4.3 3.82 2.22a34.12 34.12 0 0 0 3.73 2q0-1.3.1-9.87c.14-5.7.2-9 .2-10l-4 .11a5.49 5.49 0 0 1-3.32-1.11c-1.07-.94-2-3.46-2.62-7.56l-.9-8.35q-.51-3.12-.91-8.16c-.34-3.56-.5-6.24-.5-8.06a14.31 14.31 0 0 0 2.61.61l2.72.3a14.31 14.31 0 0 1 2.62 1 6.43 6.43 0 0 0 2.42.9 60.65 60.65 0 0 0 7.45-2.31 62.12 62.12 0 0 1 7.48-2.27zm-4.83 10.78l-4.33 2.11a19 19 0 0 0-4.23 2.42c-.4.47-.4 1.84 0 4.13.47 2.82.71 4.26.71 4.33.67-.41 1.4-.84 2.21-1.31a17.52 17.52 0 0 0 4.13-5.14 13.61 13.61 0 0 0 1.51-6.55zm63.74 1.9c1.15-.2 2.22.57 3.23 2.32s1.21 3.12.6 4.12a5.81 5.81 0 0 1-4.63 3.23 6.62 6.62 0 0 1-5.54-1.11c-.27-.27-.77-.87-1.51-1.81l-1.31-1.72 3.83-1.1a10 10 0 0 0 3.32-1.82 12.43 12.43 0 0 1 2.01-2.11zm29.31-17.83a22.3 22.3 0 0 1 5.74 4c2 2 2.85 3.86 2.52 5.54a11.92 11.92 0 0 1-2.62 3.63l-3.12 3a9.79 9.79 0 0 0 2.11 1.41 10.41 10.41 0 0 1 2 1.41c.33.4.23 1.61-.31 3.62-.2.67-.57 1.85-1.1 3.53q-.92 3.12-1.21 11.18c-.14 2.88-.2 6.58-.2 11.07 0 3.9 0 7.25-.11 10.07q-.19 8.16-.9 10v.51l5.44 1.61q4.32 1.2 5.43 1.41t11.79 2.21l11.58 2.12c1.21.2 2.45.43 3.72.7 1.75.4 3 .71 3.73.91q-.4 2.61-4 5.84a28.67 28.67 0 0 1-6.24 4.23 29.32 29.32 0 0 1-4.23 1.61 17 17 0 0 1-4.53.7q-1.62 0-8.16-2.71-.7-.21-8.06-3.43-.7-.41-5.13-2.21l-4.94-2.12L139 322l-6.35-1.11a22 22 0 0 0-4.83-.4 20.5 20.5 0 0 0-4.73.4c-.07 0-.91.21-2.52.61a4.39 4.39 0 0 1-2.52.2q-1-.41-3.12-4.33a42.72 42.72 0 0 1-2.21-4.83c.33-.2 1.44-.77 3.32-1.72s3-1.47 3.32-1.61a21 21 0 0 0-1.81-3.42q-.21-.4-1.51-4.73c-.81-2.55-1.41-3.93-1.81-4.13-1-.27-2-.51-2.92-.71a15.27 15.27 0 0 1-3.13-2.41c.67-.61 1.38-1.28 2.12-2a16.09 16.09 0 0 0 1.71-2.11l2.22-3.83c.94-1.54 1.87-2.45 2.82-2.72.6-.27 2.11-.13 4.53.4s4 1 4.43 1.51-.3 2.05-1.92 4.74l-2.81 4.93c-.41 1.61 0 4.1 1.3 7.45s2.72 5.58 4.13 6.45a17.72 17.72 0 0 0 3.53.4c2.15.14 3.32.24 3.52.3s1.38.34 3.73.81a38.89 38.89 0 0 1 3.82 1.11 51.9 51.9 0 0 1-.7-7.56q-.3-5-.3-7.35l.4-16.51q.3-14.4-.4-16.92a14.59 14.59 0 0 1-4.84.2 6 6 0 0 1-4-1.91 20.19 20.19 0 0 1 3.42-3.83l3.83-3.12a32.76 32.76 0 0 0 4.13-5 39 39 0 0 0 3.27-5.83zm15.31-1.61c3.49 1.15 5.5 1.85 6 2.12 2.28 1 3.49 2.21 3.62 3.62a5.3 5.3 0 0 1-.7 2.52 20.67 20.67 0 0 0-1.21 2.82 21 21 0 0 1 3.22.2c1.41.27 2.25.77 2.52 1.51a3.16 3.16 0 0 1-.81 2.62 11.35 11.35 0 0 1-2 2.12 15.52 15.52 0 0 0-3.22 3.12 12.8 12.8 0 0 0-1.61 4.23l3-.2a3.93 3.93 0 0 1 2.51.5 2.78 2.78 0 0 1 .41 2.82 11.68 11.68 0 0 1-1.31 2.92 11.26 11.26 0 0 1-2.92 2.32c-1.61 1.2-2.49 2.11-2.62 2.71v1l3.12-.91a3.69 3.69 0 0 1 2.72.21c.27.06.74.57 1.41 1.51a4.81 4.81 0 0 1 1.11 1.81 7.33 7.33 0 0 1-1.31 2.92 19.9 19.9 0 0 1-1.61 2.42c-.07.06-.94.74-2.62 2a11 11 0 0 0-2.42 2.32 4.72 4.72 0 0 0-.4 2.11v2.52a10.33 10.33 0 0 1 7.25-.2c2.68.8 3.86 2.21 3.52 4.23-.2 1.27-1.47 2.62-3.82 4a49 49 0 0 1-5.54 2.71 45.89 45.89 0 0 1-6.14 2.32c-3 .94-4.94 1.21-5.74.81s-1.68-1.78-3-4.33c-1-1.95-1.78-3.59-2.32-4.94.74-.27 2.25-.7 4.53-1.31s3.49-.9 4-1.11c.2-1.27.4-2.58.6-3.92a14.63 14.63 0 0 1-5.33-1.92 9.56 9.56 0 0 1-2.82-4.43 50.23 50.23 0 0 0 4.83-1.91q3.63-1.71 4-2.82a13.33 13.33 0 0 0 0-3.22 9.27 9.27 0 0 1-2.52-.41 5.66 5.66 0 0 1-2.32-1.2 18.13 18.13 0 0 1-1.71-2.42 18.54 18.54 0 0 1-1.51-2.72 10.79 10.79 0 0 0 4.33-.91 4.7 4.7 0 0 0 2.82-2.41 6.73 6.73 0 0 0 .2-2.22 20.53 20.53 0 0 1-2.82-.2q-1.3-.19-3.42-3.32a16.71 16.71 0 0 1-2.42-4.43 20.42 20.42 0 0 0 3.73-.61q2.92-.79 3.42-1.41c.34-.4.41-1.94.2-4.63a20.87 20.87 0 0 0-.6-4.83 7.56 7.56 0 0 1-1-1.92 15.24 15.24 0 0 0 3.63-1.1 10.36 10.36 0 0 0 1.09-3.08zm81.36-4.02a15.28 15.28 0 0 1 3.73 1.1 16.77 16.77 0 0 1 3.62 1.61q2.93 1.73 4.13 8.26l1 10.48c.27.87.64 2.18 1.11 3.92l1.1 3.83H262c2 .13 3.32.54 3.92 1.21.88 1.14.77 2.89-.3 5.23s-2.35 3.8-3.82 4.33l-.81.61c.33 1.54.67 2.85 1 3.93q.6 2 1.41 4a22.56 22.56 0 0 0 2.61-4.33 20 20 0 0 0 1.62-5.13 20.8 20.8 0 0 1 6.84 3 6.5 6.5 0 0 1 2.32 5.84 12 12 0 0 1-1.51 4.73 32.33 32.33 0 0 1-2.82 4.23c-.6 1.14-1.18 2.29-1.71 3.43q-.21.7 4.83 7.75l5.64 7.86c1 1.2 1.61 1.91 1.81 2.11a8.06 8.06 0 0 0 2 1.71 13.52 13.52 0 0 0 2.21-3.42l1.71-3.83 3.13 9c1.41 4.3 1.94 7.39 1.61 9.27a12.63 12.63 0 0 1-1.21 3.82 6.78 6.78 0 0 1-2.32 3c-.47.33-1.51.4-3.12.2a6.16 6.16 0 0 1-2.72-.71 124.53 124.53 0 0 1-12.48-12.59q-2.92-3.61-9.77-14-4.53 2.52-7.56 3.82c-3.35 1.48-6.11 2.12-8.25 1.92-.34-.07-1.31-.37-2.92-.91a13.3 13.3 0 0 0-3.23-.7q3.53-1.52 9.77-6.55 6.85-5.53 7.15-8.06c.07-.53-.44-1.77-1.51-3.72-1.21-2.28-1.85-3.46-1.91-3.53l-6.45 5.14-6.54 5.24-.41.4.11 9.06q-.1 7.16-1 9-.7 1.71-4.23 4.64c-2.49 2.08-4.16 2.95-5 2.61a9.46 9.46 0 0 1-1.81-2.71c-.34-.54-.87-1.51-1.61-2.92a16.85 16.85 0 0 0-1.81-2.22c-.94-1-1.55-1.51-1.82-1.51a7.66 7.66 0 0 0 2.92-.4 2.81 2.81 0 0 0 1.82-2.12 18.74 18.74 0 0 1 .3-3.22c.07-.6.3-1.85.7-3.73l-5.63 3.53c-2.82 1.68-4.64 2.52-5.44 2.52a5.86 5.86 0 0 1-4.84-2.82 12.4 12.4 0 0 1-2.11-5.74 57.66 57.66 0 0 0 9.16-2.82q7.26-2.73 8-4.54a15 15 0 0 0 .3-3.92 14.92 14.92 0 0 1-7.65-2.62 29 29 0 0 1-6-5.94c2.22-.81 4.57-1.71 7-2.72 4-1.61 6.25-2.69 6.65-3.22s.71-2 .5-4.13l-.5-4.63a39.6 39.6 0 0 1-9.47-1.82 63.36 63.36 0 0 1-8.66-3.52q9.78-3.22 14-4.94a61.62 61.62 0 0 0 13-6.84 5 5 0 0 1 1.71-1l2.72 2.42c1.14 1 2.15 1.94 3 2.82-.94-5.11-1.51-8.46-1.71-10.07a30.54 30.54 0 0 1-.02-9.98zm3.53 28.9c-.2.13-.71.54-1.51 1.21a5.67 5.67 0 0 1-1.92 1.2 25.32 25.32 0 0 0-3.92.31c-1 .06-2.49.23-4.44.5a6.61 6.61 0 0 0 2.22.6 6.06 6.06 0 0 1 2 .61 5 5 0 0 1 1.41 2.62c.27-.14 1.41-.61 3.43-1.41s3.15-1.35 3.62-1.61a7.52 7.52 0 0 0-.3-1.92 8.93 8.93 0 0 0-.59-2.11zm4 15.51a41.84 41.84 0 0 1-4.83 2.81q-3.82 2.12-5 2.93a12.82 12.82 0 0 0-.21 3.92l1-.7 5.14-2.42a55.13 55.13 0 0 0 5.23-3c-.47-1.16-.9-2.34-1.31-3.54zm11-33.64c1.14 0 3.12.14 5.94.4s4.77.41 5.84.41c1.35.53 2.45 2 3.33 4.43a10.55 10.55 0 0 1 .8 5.84 5.21 5.21 0 0 1-2.92 4 5.37 5.37 0 0 1-5 .1q-3.12-1.51-5.24-6.55a49.33 49.33 0 0 1-2.75-8.63zm60.02 4.44a46.38 46.38 0 0 1 7.45 1.31q4.33 1.41 5.74 4c.74 1.14 1 3.16.71 6l-.71 6.65q0 .81-.4 11.68t-.4 11.58q0 1.71-.51 6.85a65.39 65.39 0 0 1-.9 6.84 24.31 24.31 0 0 1-4 8.56 17.75 17.75 0 0 1-7 6 14.11 14.11 0 0 0-2.22.8 47.88 47.88 0 0 0 2.12-9.06q.7-4.34 1.21-9.37 0-1.71.3-6.74.4-6.15.8-6.85c-.06.07-1 .8-2.71 2.21a4.59 4.59 0 0 1-2.62 1.41c-1.21-.2-2.25-1.67-3.12-4.43a50.8 50.8 0 0 1-1.41-6 20.77 20.77 0 0 1-.91-4.83 37.6 37.6 0 0 1-.5-4.94 7.82 7.82 0 0 1 3.22.91 8.83 8.83 0 0 1 2.72 1.61 25.37 25.37 0 0 1 2.72 4.13 37.37 37.37 0 0 1 2.31 4.43 96.48 96.48 0 0 0-.2-12.08l-.91-12.29c0-.54-.16-2-.5-4.33-.18-2.11-.28-3.45-.28-4.05zm24.17-1.91a32.06 32.06 0 0 1 8.76 3.12c3.09 1.75 4.83 3.79 5.23 6.14a42.84 42.84 0 0 1-.4 5.74q-.5 5.44-.5 5.74V304a21.08 21.08 0 0 1 .3 5 12.88 12.88 0 0 1-.91 4.84 9.92 9.92 0 0 1-3.62 3.42q-.51.3-4.33 2.21a23.3 23.3 0 0 1-2.72-4.93q-1.81-4-1.61-5.24l1.11-1.51c.33-.94.47-3.79.4-8.56l-.1-9c-.07-.74-.14-1.58-.2-2.52a9.3 9.3 0 0 1-2 1 4.77 4.77 0 0 1-2.11.4q-1.92-.19-4.53-5.33-2.42-4.85-2.42-7.36V274a31.41 31.41 0 0 1 5.84 3.22 34.18 34.18 0 0 1 4.83 4q0-2.22-.5-15.31t-.52-14.83zm26.49-3.44q3.42.4 8.46 3.53c3.63 2.21 5.3 4.09 5 5.64a15.93 15.93 0 0 1-1.51 3.72c-1.08 2.15-1.65 3.36-1.72 3.63q-.5 2-.2 17.32l.51 17.52.5 14.91q.1 11.47-1.41 14.6c-.61 1.21-2.08 2.52-4.43 3.93a35 35 0 0 1-5.44 2.61 24.85 24.85 0 0 1-3-4.93 34.41 34.41 0 0 1-2.42-5.44h3.12q1-2.52.71-13.29l-.71-13.5c-.06-.67-.1-2.55-.1-5.63l.1-5.64a7.68 7.68 0 0 0-1.91.8 9.06 9.06 0 0 1-2 .81q-2.22 0-3.63-4.13a58.43 58.43 0 0 0-2.31-6.35 8.87 8.87 0 0 1-1-2.51 17 17 0 0 1 5.74 1.71 22.13 22.13 0 0 1 5 3.93V273q.11-6.64.1-7.75 0-2.22-.7-8.66a65.09 65.09 0 0 0-1.31-8.36 16.79 16.79 0 0 0 2.32-.3 15 15 0 0 1 2.24-.28zm62.63-.8l8.36 4a7.42 7.42 0 0 1 3.72 6.84 8.71 8.71 0 0 1-1.81 4q-.4.62-2.92 3.73-2.52 2.92-5.54 6.54-1.81 2.22-5.54 6.65L430 280c.94.14 1.77.27 2.51.4s1.62.24 2.22.3c1.88-3.55 3.22-6 4-7.45 1.74-3.15 3.05-5.44 3.93-6.85l4.22.81a9.53 9.53 0 0 1 4.74 3.53 4.92 4.92 0 0 0 3.12.7 8 8 0 0 1 3.52.4 6.19 6.19 0 0 1 3.33 3.43 12.28 12.28 0 0 1 1.1 5.13c-.13.88-1.07 1.75-2.81 2.62s-2.89 1.68-3.23 2.42l-.3 1a26.38 26.38 0 0 0 2.62 2.72l3.12 2.72a4.21 4.21 0 0 1 .6 3l-.6 3.53c1.61-.81 3.53-1.81 5.74-3 3.49-1.95 5.4-3 5.74-3.23a33.83 33.83 0 0 0 4 .41 12.11 12.11 0 0 1 3.93.8q2.51 1.11 1.91 4.84a7.44 7.44 0 0 1-2.92 5.33 23 23 0 0 1-2.52 1.11 5.3 5.3 0 0 0-2.32 1.41 47.22 47.22 0 0 0-2 5.84l-1.65 6.43.6.1a38.67 38.67 0 0 1 4 0h5.54q5.34 0 7.65 1.41c1.28.74 2.45 2.35 3.53 4.83a6.61 6.61 0 0 1 .3 3 3.39 3.39 0 0 1-1.91 1.21 19.73 19.73 0 0 1-2.22.6h-17.8q-3.63.11-8.16.51c-2.15.2-4.83.47-8.06.8a8.31 8.31 0 0 1-6.64-2.61 13.45 13.45 0 0 1-3.22-7.25l8.86-.71q5.13-.81 7.25-3.62a11.29 11.29 0 0 0 1.31-3.33 23.36 23.36 0 0 0 .4-3.62 24.35 24.35 0 0 1-6.75-3.73q-3.31-2.71-2.51-5.84a24.91 24.91 0 0 1 2.71-.6l2-.41a20 20 0 0 1-4.73-4.63 13.65 13.65 0 0 1-3.23-6.85 7.56 7.56 0 0 1 1.21-3.42 9.86 9.86 0 0 0 1.31-3.32c-.14-1.55-.27-2.66-.4-3.33a5.43 5.43 0 0 0-1.21-2.72l-.3-.3q-1.82 2.52-4.43 6.25-2.73 4-4.33 6.54a7.87 7.87 0 0 1 4.63 2.12 4 4 0 0 1 .6 4.57 16.14 16.14 0 0 1-4.53 5.23l-5.64 4.33a7.43 7.43 0 0 0-1.71 1l-1.81 1.51c.33.14 1.17.44 2.51.91 1 .4 1.88.77 2.62 1.11.94.67 1.45 2 1.51 4.12s-.33 3.4-1.41 3.73-2.72-.57-4.53-2.72l-3.42-4.53a4.87 4.87 0 0 0-2.52-.81 5.47 5.47 0 0 1-2.42-.8 7.52 7.52 0 0 1-2.11-2.62 5.87 5.87 0 0 1-.71-3 49.78 49.78 0 0 1 2.62-5l3.22-5.53.21-.61-3.73-.2a7.13 7.13 0 0 1-3.52-1.11 41.72 41.72 0 0 1-3.53-3.82 8.28 8.28 0 0 1-1.91-4.44q-.3-2.61 2.11-5.94l4.33-5.33q1.92-3.44 5.14-9.87l4.63-9.37a15 15 0 0 1 1.23-3.39zm-13 65.66c4.9 1.47 7.38 2.25 7.45 2.31q4.94 1.92 5 4.33a6.6 6.6 0 0 1-.81 2.92 4.16 4.16 0 0 1-2 2.12 10.81 10.81 0 0 1-2.62-.91 18.45 18.45 0 0 1-4.43-4.93 14.83 14.83 0 0 1-2.58-5.84zm19-22a23.72 23.72 0 0 0-3 3.43c-.6.87-1.34 2.08-2.22 3.62l2.42-1.31q1.31-.71 2.82-1.41zm-.5 10.07a21.87 21.87 0 0 1 6.54 1.41c3 1.08 4.57 2.25 4.84 3.53s-.61 2.31-2.22 3.52-2.85 1.35-3.72.61c-.54-.81-1.45-2.35-2.72-4.64a30.21 30.21 0 0 0-2.68-4.39zm32.52-56l5.64 1a20.07 20.07 0 0 1 5.64 1.81c3.23 1.82 3.26 4.33.1 7.56a31.27 31.27 0 0 1-11.17 6.84q-5.55 1.81-9.77-1.1-2.22-1.51-7.05-7.76l9.26-3.22q4.53-1.71 6.25-3.53zm-10.27 17.53q2.52.6 5.64 1.41a56.25 56.25 0 0 1 5.54 1.71q2.41 1.2 2.82 4.73c.27 2.42-.27 4.26-1.61 5.54-1.81 1.07-3 1.78-3.53 2.11a16 16 0 0 0-2.82 2.72 17.76 17.76 0 0 0 2.72 3.83l3.43 3.52q1.61 2.92-2 4.94c-2.41 1.41-4.33 1.31-5.74-.3a36.06 36.06 0 0 1-2.72-5.64 15.79 15.79 0 0 1-1.31-5.84 36.47 36.47 0 0 1 .51-5.14 32.62 32.62 0 0 0 .6-4.93 30.2 30.2 0 0 0-.7-4.44zm24.78 1.3a5.47 5.47 0 0 1 1.4 8.26 15.88 15.88 0 0 1-3.42 2.52 12.56 12.56 0 0 0-3.32 2.52l-.91 1.1c.4.88 1.51 1.75 3.32 2.62a10.82 10.82 0 0 1 3.83 2.62c1.07 1.75.74 3.46-1 5.14s-3.52 2.05-5.33 1.1a10 10 0 0 1-1.92-1.51l-2.21-2c-1.14.4-2.32.87-3.53 1.41a5.65 5.65 0 0 1 .61-2.22 4.55 4.55 0 0 0 .8-1.81 26 26 0 0 1-.3-3.82l2-5.85a20.51 20.51 0 0 0 1.3-5.84 5.07 5.07 0 0 0-1.61-1.91c-.94-.67-1.41-1.31-1.41-1.91l.81-1.71a16.64 16.64 0 0 1 5.54-.31 12.85 12.85 0 0 1 5.39 1.65zm42.33 34.09q0 2.22-.5 8c-.41 3.82-.61 6.48-.61 8-.07.34-.2 1.65-.4 3.93a7.32 7.32 0 0 1-1 3.63c-1.14 1.07-2.89.1-5.23-2.93a54.38 54.38 0 0 1-4.33-6.84q2-1.41 6.34-6.65 1.3-1.64 5.73-7.14zm-.91-21.5q1.81 2.42.2 6.35a29.63 29.63 0 0 1-4 6.24 27.29 27.29 0 0 0-3.78-5.79q-3.12-3.93-3.32-5.74c-.07-.94-.14-1.68-.2-2.22a30 30 0 0 1 5.94-.4c2.64.14 4.36.64 5.16 1.56zm2.62-25.58a7.06 7.06 0 0 1 4.53 3q2.22 2.82 1.41 4.44c-.8 1.34-2.55 2.14-5.23 2.41a10.47 10.47 0 0 1-5.95-.9 24.66 24.66 0 0 1-2.51-1.72c-.88-.67-1.68-1.34-2.42-2a9.7 9.7 0 0 0 2.32-.4 9.89 9.89 0 0 0 2-.71 13.89 13.89 0 0 0 2.82-2.41c1.29-1.25 2.29-1.82 3.03-1.76zm25.48-12.58a7.38 7.38 0 0 0 1.91 1.71 3.15 3.15 0 0 0 2.42.4l1.31-1q.6-.7 4.63 1.82c2.68 1.61 4 2.71 4 3.32 0 .07-.27.8-.81 2.21a17.69 17.69 0 0 0-.8 2.32l8.25-3.62a6.53 6.53 0 0 1 7 1.3 2.34 2.34 0 0 1 .41 3.23 3.8 3.8 0 0 1-3.33 1.81l-6.54.91a25.27 25.27 0 0 0-6.55 1.51 10.69 10.69 0 0 0-1.51 3 11.2 11.2 0 0 1 2.52.6c1.41.47 2.15.84 2.21 1.11.07.6-.7 2.15-2.31 4.63s-2.52 4.1-2.52 4.63l.61 1.51-.91 8q-.51 4.53-.81 8a11.51 11.51 0 0 0 3.33.9 5.69 5.69 0 0 1-1.51-2.52 18.57 18.57 0 0 1 1.3-2.82 17.67 17.67 0 0 0 .51-5.53 21.22 21.22 0 0 0-.91-5.54 24.45 24.45 0 0 1-1-2.72l2.21.3a10 10 0 0 0 2.42.2 18.16 18.16 0 0 0 3.72-3.52 19.77 19.77 0 0 0 3.23-4.13 8.93 8.93 0 0 1 3.42 1.31c1.75.8 2.68 1.48 2.82 2s-.5 1.48-1.71 2.42a27.89 27.89 0 0 1-3.22 1.91c1.07 1.28 2.58 2.92 4.53 4.94a37.84 37.84 0 0 0 4.63 4.43q1.2 1.2 8.26 5 6.84 3.73 8.36 5.54a39.23 39.23 0 0 1-8.46 3.12 10.53 10.53 0 0 1-8.46-2.11 18.68 18.68 0 0 1-3.43-3.53 50 50 0 0 1-2.72-4.23c-.8.94-1.57 1.82-2.31 2.62l-2.12 2.32a4.56 4.56 0 0 1 2.62 2.11 9.08 9.08 0 0 1 .61 3.83q0 5-.31 17.12t-.3 16.92a14 14 0 0 1-1.71 6.84 9.39 9.39 0 0 1-5 4.54q-1.8-4-2.11-15.61l-.3-16.52a40.7 40.7 0 0 1-8.46 3.43c-4.16 1.2-6.92 1.54-8.26 1a17.75 17.75 0 0 1-2.21-2.21 25.78 25.78 0 0 1-.91 6.95q-1 4.23-3.12 5.23a10.28 10.28 0 0 1-2.72.91 20.43 20.43 0 0 1-2.82.3 26.59 26.59 0 0 0 3.93-10.87 85 85 0 0 0-.1-12.29 14.17 14.17 0 0 1-1-3.73c-.54-2.21-.84-3.49-.91-3.82a8.66 8.66 0 0 0-1.41-1.51l-1.71-1.51a62.48 62.48 0 0 1-4.23 5.33c-2.22 2.42-4 3.83-5.34 4.23a22.81 22.81 0 0 1-3.52.3c.54-.6 1.34-1.47 2.42-2.61a13.65 13.65 0 0 0 2.21-2.62c.61-.61 1.51-2.32 2.72-5.14l2.32-5.44v-1.2a16.12 16.12 0 0 1-5.44-2.32 7.7 7.7 0 0 1-2.62-5.34 19.43 19.43 0 0 0 5.64 0 30.42 30.42 0 0 0 5.64-1.1 47.08 47.08 0 0 1 4.63-1.11 9.63 9.63 0 0 1 4.43 0l3.22 1.31a5.08 5.08 0 0 1 2.52 2.11q.3 1.11-2.31 7.86a54.44 54.44 0 0 1-3.13 7.45c-.4.67-.8 1.37-1.2 2.11a16.76 16.76 0 0 1 3.22 2.32q1 1.2.5 4.53l-.6 4.73c2.41-.67 5.44-1.64 9.06-2.92q2.63-.9 9.57-3.42v-3.12c-.07-1.34-.1-2.42-.1-3.23q-5.85 5.25-6.75 6c-2.69 1.68-5.1 1.91-7.25.7a11.07 11.07 0 0 1-3.42-3 27.81 27.81 0 0 1-2.52-3.83l3.82-.8c1.75-.4 2.79-.87 3.13-1.41.53-1.28.77-4.6.7-10l-.4-10c1.14-.4 2.21-.74 3.22-1 .54-.2 1-1 1.31-2.31a11 11 0 0 0 .5-3.13l-.2-.6a19.22 19.22 0 0 1-2.11 1.61 3 3 0 0 1-2.42.61q-.51-.11-1.71-2.52a10.53 10.53 0 0 1-1.21-2.62l-4.73 1.11c-2.15.47-3.63.54-4.43.2a12.2 12.2 0 0 1-2.52-2.82 11.38 11.38 0 0 1-1.71-3.42 36.48 36.48 0 0 0 6.54.2q1-.1 6.65-.81l-.2-6.75a50.62 50.62 0 0 1 .23-7.04zm-8.56 37l-1.31.41q-.81.71-1.71 4a22 22 0 0 0-.81 4 4.24 4.24 0 0 0 3.83 0 4 4 0 0 0 1.11-3.82zm11.78-13.49a21.85 21.85 0 0 1-.91 7.15q-1.31 3.63-4.22 2.22c-.95-.54-1.48-1.65-1.62-3.33v-4a22.93 22.93 0 0 0 3.53-.3c1.21-.7 2.32-1.27 3.22-1.74zm16.42 9.37a17.54 17.54 0 0 0-1.82 5.13 37.5 37.5 0 0 0-.3 5.44l2.92-1.81a22.47 22.47 0 0 0 2.82-2.42l-1.94-3.22a13.43 13.43 0 0 1-1.68-3.12zm74.11-10.07a15.88 15.88 0 0 1 5.44 2.31 4 4 0 0 1 1.71 4.33c-.07.54-.8 1.71-2.21 3.53a24.09 24.09 0 0 0-2.42 3.42 4 4 0 0 1 2.11 2.52c0 .27-.67 1.14-2 2.62a11.79 11.79 0 0 0-2.32 2.82c-.26 1.27-.47 2.45-.6 3.52q3.93-2.22 6.45-1.41c1.74.6 2.08 2.22 1 4.83a7.82 7.82 0 0 1-2.42 2.22 29.46 29.46 0 0 0-2.81 1.91 8.88 8.88 0 0 0-1.62 1.81 4.11 4.11 0 0 0-.6 2.12v5.74a16.91 16.91 0 0 1 4 .5 5.05 5.05 0 0 1 3.12 1.72c.54.73.64 1.94.3 3.62a14.4 14.4 0 0 1-1.41 3.73 15.32 15.32 0 0 1-2.82-2.32A21.31 21.31 0 0 1 651 308l-.61 5.85a17.76 17.76 0 0 1-1.21 5.63 14.14 14.14 0 0 1-3.32 4.44c-1.75 1.74-3.06 2.45-3.93 2.11-.33-.13-1-1.38-2.11-3.73a29.2 29.2 0 0 0-2-3.92c-.53-.81-1.17-1.71-1.91-2.72a22.29 22.29 0 0 1 2.42.1 6.91 6.91 0 0 1 2.52.5c.2-1.47.36-4 .5-7.45v-7.45c-1.08.54-2.22 1.17-3.43 1.91a9.88 9.88 0 0 0-3.12 2.22c-.33.33-.43 1.07-.3 2.21a9.36 9.36 0 0 1 .3 2.52 14.36 14.36 0 0 1-1.91 5.24c-1.28 2.08-2.38 2.82-3.32 2.21a9.73 9.73 0 0 1-1.41-2.62 8.31 8.31 0 0 1-.91-2.82 4.88 4.88 0 0 1 .81-1.71 19.35 19.35 0 0 1 1.21-1.81q-4.63 2.42-6.95 2.32-3 0-5.34-3.53a3.82 3.82 0 0 1-1.11-1.41l-1.09-2.09a38.57 38.57 0 0 0 5.54-2.12q3.93-1.71 5.74-2.72c.67-.26 3.09-1.61 7.25-4s6.35-3.62 7-4a6.39 6.39 0 0 0 1.41-3l-3.93.2a11.64 11.64 0 0 1-3.72-.3 6.09 6.09 0 0 1-2.47-2.06 12.49 12.49 0 0 1-1.71-2.92 61.07 61.07 0 0 0 8.56-3 15.08 15.08 0 0 0 6.54-5.54 55.24 55.24 0 0 0 3-6.75 50.58 50.58 0 0 0 2.44-7.14zm-10.37-22.86l7.05 2.31q5.24 1.71 6.34 3a4.86 4.86 0 0 1 1.21 3.12 8.34 8.34 0 0 1-.3 3.33 7.47 7.47 0 0 1 3.62 2.31c.68 1 .54 2.22-.4 3.63q-.81 1.2-5.74 4.43l-6.14 3.93-3.53 2.72q-3 2.42-3.22 3.22h-.5l3.32-2a12.56 12.56 0 0 1 3.43-1.41c-.27.48-.88 1.72-1.82 3.73q-1.3 2.72-1.71 3.63a41.35 41.35 0 0 1-2 4.93q-1.41 2.11-3.43 1.11c-1.54-.67-2.65-2.22-3.32-4.63s-.34-4.1 1-5a34.67 34.67 0 0 0 3.52-4.23q3.12-3.93 3.12-4.33-3.62 1.11-5.33-.1-1.41-1-3.23-5l4.84-1.31 5-1.41q0-1.51-.9-7.86a77.38 77.38 0 0 1-.88-8.12zm51.76 12.89a8.63 8.63 0 0 1 5.64 1.71q3.42 2.12 2.42 3.82c-.41.81-2.82 2.19-7.25 4.13l-7.86 3.43-5.34 1.41q-4.62 1.31-5 1.71-.71.51-1.51 7.65c-.47 4.1-.71 6.78-.71 8.06h-.1a48.57 48.57 0 0 0 5.94-1l5.64-1.31q5.34-1.11 8.36-2 5.84-1.62 7.25-3.43c3.63 1.48 5.67 2.35 6.15 2.62q4.13 2 4.63 3.73a5.37 5.37 0 0 1-.71 2.92 6.45 6.45 0 0 1-1.61 2.31c-.8.68-3.22 1.28-7.25 1.82l-7.75 1h-1.51v11.89c-.07 6.84-.14 10.74-.21 11.68q-.79 8.65-.8 9a28.51 28.51 0 0 1-2.22 8.76q-.4.81-2.92 4.43-2.72 3.82-2.82 4.13-1.41-2.82-2-12.28-.4-5.64-.4-12.19v-11.84c-.07-6.51-.1-10.41-.1-11.68-.27.13-1.51.57-3.73 1.31a15.13 15.13 0 0 0-3.52 1.31 2.71 2.71 0 0 0-.91 2.11 23.87 23.87 0 0 1-.3 2.82 50.29 50.29 0 0 1-3.63 9.37c-2 4-4 6.68-5.94 7.95a7.94 7.94 0 0 1-2.62 1.41 3.69 3.69 0 0 1-2.62-.1q-.4-.1-1.2-1.71a7.22 7.22 0 0 1-.71-2.12 9.33 9.33 0 0 0 3-.5q1.41-1.41 2.82-9.16l1.61-9.57v-14.8a59.15 59.15 0 0 0-.7-7.15 57.34 57.34 0 0 0-1.21-7.05l-.91-2.62a6.18 6.18 0 0 1-.4-2.72c.4-1.27 2.18-1.51 5.34-.7.27.06 2.48.77 6.64 2.11a6.69 6.69 0 0 0 2.32.6q.81 0 9.37-5.53t9.34-5.74zm51.96.6a42 42 0 0 1 9 .81c3.82.8 5.8 2.25 5.94 4.33.13 1.74-1.15 4.23-3.83 7.45l-6 6.95a13.55 13.55 0 0 1 2.62 2.21q.49 1.41-2.52 4.43a32.41 32.41 0 0 1-4.13 3.53c1.21.74 1.78 1.58 1.71 2.51l-.6 3.73a10.11 10.11 0 0 1 3.52-.7c1.55-.14 2.55 0 3 .5a5.89 5.89 0 0 1-.4 3.72 7.93 7.93 0 0 1-2.92 1.11c-1.68.47-2.65 1-2.92 1.61v4.13c0 1.55-.07 3-.2 4.43 1.21-.4 2.42-.77 3.62-1.1s2.55-.84 3.63-1.11l.1 3.12a8.58 8.58 0 0 1-.71 3.42q-.9 1.41-6.94 6.05-4.63 3.42-7.35 5.23a35 35 0 0 1-3.53 2.42 5.29 5.29 0 0 1-3.83.8 8.58 8.58 0 0 1-3.92-2.82 29.37 29.37 0 0 1-3-4.22l3.63-1.82c2-1 3-1.71 3.12-2.11.54-1.07.07-3.26-1.41-6.55a34.81 34.81 0 0 0-3.52-6.24q5.34-1.11 7.75-.2 3.23 1.11 2.92 5.64a21.77 21.77 0 0 1-.4 2.51 16.61 16.61 0 0 0-.3 2.62 6.72 6.72 0 0 1 2.41-1.21 3.33 3.33 0 0 0 1.92-1.2v-21.35a23.06 23.06 0 0 1-5.24-1.51 14.57 14.57 0 0 1-4.83-3.13 9.68 9.68 0 0 0 2.11-.9 13.22 13.22 0 0 1 2.12-.91q-2.22-7.24-2.82-8.86-1.32-3.93-3.22-8.86c-.34-1.07-.68-2.38-1-3.93a11.62 11.62 0 0 1-.3-4.43 47.09 47.09 0 0 1 6.74.6c3.43.41 5.47 1 6.15 1.62a9 9 0 0 1 1.1 1.81 5.06 5.06 0 0 0 3-1.51 8.6 8.6 0 0 0-.27-2.62zm-.9 8.06c-.27.47-.71 1.37-1.31 2.71l-.91 2.42a10.63 10.63 0 0 0 .1 3.83 8.33 8.33 0 0 0 1.41 3.42 22.4 22.4 0 0 0 2.32-5q1.71-4.63 2.11-5.54c-.87-.4-1.54-.71-2-.91q-1.02-.52-1.72-.93zm22.86-20a32.23 32.23 0 0 1 6.14 3.42q3.23 2.52 3.42 5.14a5.42 5.42 0 0 1-.4 2.31 10.51 10.51 0 0 0-.5 1.92 17.27 17.27 0 0 1 8.25-2.42q4.33 0 3 4c-.4 1.27-2.21 3.09-5.43 5.43q-3.22 2.33-6.85 4.44A119.06 119.06 0 0 0 786 273.84a157.93 157.93 0 0 0 13.79 9q1.71.7 4.23 2l4.74 2.52L810 289a17.93 17.93 0 0 0 1.41 1.71 58.44 58.44 0 0 1-6 2.72 30.11 30.11 0 0 1-6 2.12 10.31 10.31 0 0 1-6.85-1.61 34.44 34.44 0 0 1-5.13-5.14l-1.61 1.71c-.88.88-1.41 1.31-1.62 1.31l-3.72 1.61c-1.35.54-2.45.94-3.33 1.21a5.68 5.68 0 0 0-1.71 3 15.62 15.62 0 0 1-1 3.33l-.31.6h6.55a9.22 9.22 0 0 1 3.12 1.71 7.25 7.25 0 0 1 1.91 3.12c0 6.65-.06 10.54-.2 11.69q-.71 6.84-3.92 10.47a14.63 14.63 0 0 1-6.25 3.93c-3.15 1.2-5.4 1.34-6.74.4a20.09 20.09 0 0 1-2.52-3.73 37.79 37.79 0 0 0-2.22-3.72 11 11 0 0 0-1.91-2c1.27 0 2.48 0 3.62-.1a14.73 14.73 0 0 0 3.93-.4q2.63-1.11 4-6l1.71-8.06.3-1.51-6.14 2.92c-3.16 1.34-5.1 1.78-5.84 1.31a7.23 7.23 0 0 1-2.11-2.82c-.94-1.61-1.38-2.72-1.31-3.32a3.4 3.4 0 0 1 1.81-1.71 8.4 8.4 0 0 0 2.21-1.52c1-1.14 1.78-2.08 2.32-2.81-.07 0-.87.26-2.42.8a17.46 17.46 0 0 1-2.71.71 6.57 6.57 0 0 1-3.33-2.22 24.46 24.46 0 0 1-2.21-3.42l13.29-6.45q9.57-4.32 13.79-4l.91.31q-.71-.71-1.71-1.92c-1.08-1.41-1.65-2.15-1.71-2.21a5.65 5.65 0 0 1-3.53 2.92l-4.82 1.58c-.87.4-2.08 1-3.63 1.81l-3.52 2 2.21-2.61a5.32 5.32 0 0 0 1.21-2.82 12.15 12.15 0 0 1-2.61-1.31 48.5 48.5 0 0 1-6.75 9.46 35.23 35.23 0 0 1-9.37 6.35 11.78 11.78 0 0 1-2.52 1.11 93.27 93.27 0 0 0 8-13.2 99.05 99.05 0 0 0 6.24-14.5 15.48 15.48 0 0 0 .81-2.41l.81-2.72a30.22 30.22 0 0 1-3.53-2.52 31.19 31.19 0 0 1-3.52-2.82 23.11 23.11 0 0 0 4.12-1.31c2.49-1.07 3.86-1.64 4.13-1.71.41-3.29.77-6.48 1.11-9.57.34-4.35.55-7.51.55-9.45zm4 30.81c-.67 1.55-1.17 2.82-1.51 3.83a20.61 20.61 0 0 0-.9 3.62c.87-.2 2.35-.47 4.43-.8a38.33 38.33 0 0 1 4.73-.51c-2-1.74-3.19-2.75-3.52-3q-2.2-2.07-3.21-3.18zM844.28 238q7.26 2.72 7.66 2.92c3.55 1.54 5.67 3.05 6.34 4.53a9 9 0 0 1 .2 4.73 45.56 45.56 0 0 0-.7 5 10.26 10.26 0 0 1 4.73 2.82q2.41 2.42 1.61 5a10.25 10.25 0 0 1-3.52 4.53l-4.84 3.93v2.22l2.92-.81a2.43 2.43 0 0 1 2.52.71l.91 1.71c.06.8-.84 2-2.72 3.72q-3.12 2.82-3.33 3.43v6.74l.11.71a12.6 12.6 0 0 1 3.92-2c1.68-.47 2.92-.24 3.73.7a10.5 10.5 0 0 1 1.21 1.81c.06 1.15-.94 2.29-3 3.43q-.81.4-6 2.61c-.26 2.56-.4 4-.4 4.34a16.07 16.07 0 0 0 .4 4.43q3.53 3 16.52 7.75a148.39 148.39 0 0 0 22.56 6.44c1.41.21 3.62.47 6.64.81s5.58.67 7.86 1a11.21 11.21 0 0 1 2.11.9 26 26 0 0 0-1.61 2.92 26.12 26.12 0 0 1-6 4c-1.68.81-3.89 1.71-6.65 2.72l-5 1.81a14.24 14.24 0 0 1-5 .91 20.09 20.09 0 0 1-3.12-1.41c-1.27-.67-2.42-1.31-3.42-1.91l-21.15-13.9q-11.88-7.95-16.21-10.57l-1.61-.61a49.43 49.43 0 0 1-7.25 8.86 30.24 30.24 0 0 1-9.17 6.35 60.61 60.61 0 0 0 6.45-8.86 93.43 93.43 0 0 0 5-9.67q0-.19 1.71-5.54a25.51 25.51 0 0 1 2.22-5.24 13.22 13.22 0 0 1 2.42.81 3.79 3.79 0 0 1 1.91 1.51 4.94 4.94 0 0 1-.1 3.52l-1.41 3.53c.67.13 1.34.3 2 .5a30.41 30.41 0 0 1 3.83 1.31v-8.66l-.2-5.74c-.14-.8-.24-1.54-.3-2.21l-6.85 5q-4.23 2.82-6.75 2.32-1.6-.41-3.62-3a18.22 18.22 0 0 1-2.72-4.33 20 20 0 0 1-.61-2.22 61.36 61.36 0 0 0 8.36-1.61q2.71-.71 8.16-2.42l1.61-.7v-2.52a13.68 13.68 0 0 0-3.32-1.21q-5.25-4-5.64-7.45a7.14 7.14 0 0 1 1.31-4.33 6.68 6.68 0 0 0 5.13-1c.4-.27 1.34-1 2.82-2.21v-6.06a53.42 53.42 0 0 0-2-8.56c-1.06-3.55-1.26-6.31-.66-8.24zm27.39 7.65a47.57 47.57 0 0 1 8.06 2.32 7.4 7.4 0 0 1 4.13 5.94c0 .74 0 2-.1 3.93s-.2 3.08-.2 3.82a32.13 32.13 0 0 1 2.41-2.72c.41-.4 1.28-.53 2.62-.4a3.76 3.76 0 0 1 2.62.81c.74.6 1 1.67.91 3.22a7.58 7.58 0 0 1-.91 3.42c-.74.74-1.61 1.58-2.62 2.52l-2.59 2.61.81 4.73a16.23 16.23 0 0 0 1.71 4.43c.07-1.34.17-2.55.3-3.62q.3-2.42.51-3.93a12.47 12.47 0 0 1 4.13 1.31 3.81 3.81 0 0 1 2.21 3.12q-.3 1.3-1.51 5.24-.81 2.31-2.32 6.84 1.41 3.43 5 10.58t4.13 8.76a13.31 13.31 0 0 1-.3 3.52 20 20 0 0 1-1.72 1.51 12.49 12.49 0 0 1-1.71 1.41q-2.22.21-5.64-5.84l-4.93-10-.3-.2a27.78 27.78 0 0 1-5.54 3.22 8.22 8.22 0 0 1-5.94 0 26 26 0 0 0 4.73-4.73 28.34 28.34 0 0 0 3.42-5.13q-.6-2.12-1.81-6.35c-.8-2.82-1.41-4.93-1.81-6.34-.34-.87-.57-1.51-.71-1.92-1.41.88-2.62 1.65-3.62 2.32q-1.82 1.11-3.63 2.42l-.5.8v7.86l.1.7c.94-.6 2.11-1.34 3.52-2.21s2.15-1.35 2.62-1.61q.81 4.43-3 10a113.91 113.91 0 0 1-7.65 8.76 10.74 10.74 0 0 1-2.62-2.92 17.52 17.52 0 0 1-2.11-3.43 9.24 9.24 0 0 0 1.81-2.31 18.39 18.39 0 0 0 1-2.82v-6.05c-.41-3.75-.71-6.54-.91-8.35-.34-3.16-.57-6-.71-8.46q.21-1 .51-2.22a26.86 26.86 0 0 1 2.21 1.71c1.08.88 1.88 1.58 2.42 2.12a26.5 26.5 0 0 0 3.73-2.22l3.62-2.62v-1l-1.5-4.63q-.9-2.73-1.61-4.54l-2-4.33a44.7 44.7 0 0 1-1.82-4.23 5.35 5.35 0 0 1 1.31-2.51c1.12-1.48 1.73-2.25 1.79-2.32zm18.43 2l6 1.92c2.49.94 4.13 2.08 4.94 3.42a7.3 7.3 0 0 1 .5 4 10.45 10.45 0 0 1-2.41 2.42l-1.11.5a11.44 11.44 0 0 1-2.82-2 8 8 0 0 0-2.82-1.82l-1-.7 1.51-1.51a4.31 4.31 0 0 0-1-4zM40.08 109a10 10 0 0 1 2.22.71 19.39 19.39 0 0 1 2 .9 18.55 18.55 0 0 0 4.93 1.31c2.28.4 3.59 1 3.93 1.81q.7 1.81-2.62 6.75l-4.83 7a8.93 8.93 0 0 0-.91 2 6.12 6.12 0 0 0-.6 2.12 18.43 18.43 0 0 1 7.95-.91 10.63 10.63 0 0 1 6.75 3.83q2.22 2.52.81 4.83a26.19 26.19 0 0 1-4.33 4.13q-.81.7-2.82 2.82c-.74.81-1.61 1.78-2.62 2.92a23.89 23.89 0 0 1 5.64 1.41 5.66 5.66 0 0 1 3.52 3.63 15.88 15.88 0 0 1-1 3.72q-1.41 1.41-4 3.83c-1.75 1.61-3.06 2.89-3.93 3.82l13.49-1.1a25.25 25.25 0 0 1 12.69 2.41 11.88 11.88 0 0 1 7 13.7 22.5 22.5 0 0 1-3.32 8.16 36.2 36.2 0 0 1-5.34 7.05 37 37 0 0 1-6.69 5.59 20 20 0 0 1-7.85 3.63 13.61 13.61 0 0 1-3.12.4 3.53 3.53 0 0 1-2.52-.7q-.6-1.52-1.41-4.23c-.6-2.08-1-3.49-1.31-4.23a7.35 7.35 0 0 0-1.51-2.12q4.83 1.32 7.85.31 3.23-1 5.54-5.14a40.15 40.15 0 0 0 2.62-6.85 69.56 69.56 0 0 0 1.51-7 59.73 59.73 0 0 0-7.45-.5 53.78 53.78 0 0 0-7.45.3 29.48 29.48 0 0 1 5.44 3.83q2.41 2.52 1.41 5-.91 2.22-4 2.82c-2 .34-3.29-.16-3.83-1.51l-1.51-4.93c-.8-2.55-1.44-4-1.91-4.33-.27-.27-1.35-.24-3.22.1-2.22.4-3.4.6-3.53.6a34.51 34.51 0 0 0 2.12 2.92 8.7 8.7 0 0 1 1.61 2.72 5.7 5.7 0 0 1-1.71 4.63c-1.35 1.62-2.56 2-3.63 1q-.6-.41-1.61-4.83a47.57 47.57 0 0 0-1.31-5c-.54 0-1.51.07-2.92.2s-2.28.21-2.82.21a46 46 0 0 1 3 5.74c1 2.48.87 4.26-.4 5.33L30.51 191c-.54-1.34-1-2.68-1.41-4s-.5-2.65-.7-4.13v-3a8.8 8.8 0 0 0-.4-3 8.05 8.05 0 0 0-1.41-2.21 11.8 11.8 0 0 0-2.12-2l7-2.21q4.23-1.22 6.85-1.92a8.92 8.92 0 0 0 1.31-2.71c.67-1.82 1.07-2.82 1.2-3l-2.82.81a4.07 4.07 0 0 1-2.92-.3 8.15 8.15 0 0 1-2.41-1.61c-.61-.54-1.38-1.28-2.32-2.22-.54 1.14-1.58 3.06-3.12 5.74s-2.59 4.5-3.12 5.64a12 12 0 0 0-2.12 2 5.7 5.7 0 0 0-1.51 2.42q-.09.81 1.51 5.34c1.14 3.29 1.75 5.13 1.82 5.54a14.66 14.66 0 0 1-1.51 7.25c-1.28 2.82-2.59 3.82-3.93 3q-1.32-.7-2-6.95l-.8-7.75v-.31a62.12 62.12 0 0 0-5.14 3.93 55.28 55.28 0 0 1-4.93 3.63 29.21 29.21 0 0 1-3.83.5q2.52-2.93 8.76-13.9 4.94-8.76 8-14.8a18.26 18.26 0 0 0 1.81-2.92l1.51-2.92-3.83.8a5.67 5.67 0 0 1-3.82-.7q-1.52-.81-2.92-4.23a28.54 28.54 0 0 1-1.51-5q1.2-.61 9.56-3.73 8.67-3.23 9.57-3.63 2.72-8.06 4.33-12.48 1.92-5.23 4.73-12.09a20.3 20.3 0 0 1 1.11-2.51zm-20.95 10a35 35 0 0 0 5 1.31 21.48 21.48 0 0 1 4.73 1.41c1 1.07 1.44 3.15 1.31 6.24s-.77 5-1.91 5.64-2.79-.2-4.74-2.42a13.43 13.43 0 0 1-3.32-5.53c-.27-1-.5-2.08-.7-3.23a22.17 22.17 0 0 1-.37-3.42zM42 144.35l-2.82 1.51a4.9 4.9 0 0 0-1.91 1.71l-2 3.32c-1.28 2-2 3.19-2.12 3.53l3.12-.91a5 5 0 0 0 2.52-1.81 16.24 16.24 0 0 0 1.61-3.43c.92-2.35 1.46-3.65 1.6-3.92zM140.68 109H142a12.63 12.63 0 0 1 2.52 1.91 11.65 11.65 0 0 0 2.51 1.82q2.63 1.41 5.34 3.12 4.13 2.82 4.53 3.93a3.12 3.12 0 0 1-.7 3.22l-2.92 3.42a2.14 2.14 0 0 0-.3 2 25 25 0 0 1 .4 2.51 75.56 75.56 0 0 1 10.37-1.81q7.15-.6 10.07 1.41 1.81 1.22 5.44 5.94c2.48 3.36 3.73 5.57 3.73 6.65a7.94 7.94 0 0 1-.41 2.31c-.27 1-.57 1.58-.9 1.72l-3.73 1.61a5.89 5.89 0 0 0-2.11 2.72l-1.72 3.42 1.31 1.71a2.82 2.82 0 0 1 .81 2 6 6 0 0 1-2.32 3.32 6.66 6.66 0 0 1-4 1.51l-9.06 1a77.41 77.41 0 0 0-9.26 1.41l.3 20.64q-.71 14.91-5.14 17.82a12.07 12.07 0 0 1-3.62 1.31q-2.56-3.86-3.14-18.62-.21-4.32-.21-19.43c-2.82.34-5.47.77-8 1.31a66 66 0 0 0-7.65 2.11 94.07 94.07 0 0 1-8-13q-4.23-8.46-5.24-14.3l-.5-4a15.22 15.22 0 0 1 0-3.72l1.61-1.21c2.42.47 3.89.77 4.43.91a29.91 29.91 0 0 0 4.74.4 9.2 9.2 0 0 0 2.81 1.51c2.35-.74 4.77-1.44 7.26-2.12 2.08-.46 4.66-1 7.75-1.71 0-3.42-.14-6.81-.4-10.17l-.81-10.17a5.84 5.84 0 0 1 .71-2.82 2.4 2.4 0 0 1 2.18-1.59zm-2.21 36a44 44 0 0 0-5.95 1.61q-2.72.81-5.84 1.92a42.1 42.1 0 0 0 1 4.73q.7 3 1.11 5 2.41-.7 5-1.21l4.84-.9c0-1.48 0-3.39-.1-5.74s-.06-4.18-.06-5.41zm27-5.13a27.7 27.7 0 0 0-6.64.9q-1.51.3-6 1.61a45.38 45.38 0 0 0-.51 5.64l.1 5.84q1.21 0 4.23-.3a18.92 18.92 0 0 0 4.43-.8q1.41-.61 3.12-6a24.42 24.42 0 0 0 1.62-6.94zm47.11 11.43a64.67 64.67 0 0 1 6.45 4.32 21.7 21.7 0 0 1 5 5.54 11.13 11.13 0 0 1 .71 7q-.81 4.44-3.53 5.14t-5.64-2.52a10.28 10.28 0 0 1-2.72-6 32.34 32.34 0 0 1 .31-4.94 20.33 20.33 0 0 0 .1-5.23 9.58 9.58 0 0 0-.68-3.31zm28.7-26.49c1.81 0 4.6 1.18 8.36 3.52s5.94 4.27 6.75 5.74a5.48 5.48 0 0 1 0 2.93l-.81 3.22q-.11 1-.1 8.26t.1 8.15a130.06 130.06 0 0 1 .4 13.5q-.19 8.76-2.31 12.79a27.2 27.2 0 0 1-5.14 5.94q-4.42 4.23-5.94 3.82c-.74-.13-1.68-1.41-2.82-3.82a20 20 0 0 1-1.71-4.53 11.26 11.26 0 0 0-1.61-3 19.67 19.67 0 0 0-2.22-2.72 12.13 12.13 0 0 0 2.72-.9 7.66 7.66 0 0 0 2-1.61q1-1.71.8-15.31-.11-7.95-.5-15.41a58.48 58.48 0 0 0-2.12-10 43.2 43.2 0 0 1-1.71-10.07 13 13 0 0 0 3.22.51c.83-.34 1.7-.67 2.64-1.01zm30.11 22.66q1.51.51 5.34 2.11c2.82 1.21 4.56 2 5.24 2.42q2.61 1.41 4.73 5.74a15.38 15.38 0 0 1 1.91 7.55c-.07 1.28-1.24 2.92-3.52 4.94s-4 3-5.14 2.82q-2.52-.21-5.84-8.16a46.12 46.12 0 0 1-3.32-10.67 16.82 16.82 0 0 1 .2-3.33 32.06 32.06 0 0 0 .4-3.42zm73.82-30.92c.67-.33 2.71.07 6.14 1.21s5.37 2 6 2.62a3.49 3.49 0 0 1 1.41 1.91A13 13 0 0 1 359 125q8.06 9.77 13 14.6a91.51 91.51 0 0 0 14.7 12.09l4.74 2.72a18.92 18.92 0 0 1 4.13 2.92 21.31 21.31 0 0 1 1.2 2.92 73.72 73.72 0 0 1-9.36 3.42q-6 1.71-9.67.4a13.64 13.64 0 0 1-4.63-2.82 23.65 23.65 0 0 1-3.63-3.82q-4.53-7-7.65-11.78-4.23-6.45-7.95-11.79l-1.31-1.31q-1.62 2-7.35 10.78-6.66 10.17-7.46 11.18l-4 5.84q-3.23 4.33-4.74 5.23t-7.25.61l-7.55-.3A152.45 152.45 0 0 0 324.46 153a138.72 138.72 0 0 0 8.16-14.5l5.84-11.5q4.94-9.54 6.75-10.45zm2.21 28.2a44.62 44.62 0 0 1 8.16 1.61c2.95 1.08 4.63 2.65 5 4.73a32.61 32.61 0 0 1-.4 4.84c-.34 2.88-.5 4.43-.5 4.63a40 40 0 0 1 5.33.5c2.76.41 4.43.88 5 1.41 1.21 1.21.7 2.66-1.51 4.33a27.12 27.12 0 0 1-6.14 3.23 20 20 0 0 0-2.72 1.1v14l9.16 1q6.54.9 8 3.32a12.1 12.1 0 0 1 .9 3.42 8.54 8.54 0 0 1 .1 3.43 2.62 2.62 0 0 1-1.51 1.81 5.2 5.2 0 0 1-2.41.81A97.58 97.58 0 0 1 363 199l-11.08-.3c-1.74.26-4.56.57-8.46.9q-7.85.7-8.46.71c-1.88-.21-3.59-1.51-5.13-3.93a11.68 11.68 0 0 1-2.12-6.14 8.37 8.37 0 0 0 3-.51 6 6 0 0 0 2.31-1.71c.61-.87.3-3.66-.9-8.36L329.8 171a14.73 14.73 0 0 1 0-3.52 22.34 22.34 0 0 1 6.85 2.41c3 1.55 4.76 3.09 5.23 4.64a18.09 18.09 0 0 1 .1 4.83l-.2 4.73v2.62H346c-.27-5.5-.4-11.08-.4-16.71s.13-11.25.4-16.82c-.07-.14-.3-.81-.7-2a4.77 4.77 0 0 0-1.21-2 14.8 14.8 0 0 1 1.51-2.22zm108.26-35.15a76.8 76.8 0 0 1 9.76 3.63q6 2.82 5.94 5.74a18.1 18.1 0 0 1-1.91 4.73 41.35 41.35 0 0 0-2.21 4.74 27.37 27.37 0 0 0 4.63-3.43c2.42-2.08 3.72-3.46 3.93-4.13a6.54 6.54 0 0 0 .3-2.72 5.36 5.36 0 0 1 .3-2.51q.81-1.22 5.94 1.31 4.93 2.42 5.54 3.92 1 2-3.32 4.53c-1.15.68-3.36 1.75-6.65 3.23l-5.54 1.81a36.12 36.12 0 0 0-5.44 2 8.35 8.35 0 0 0-.3 3.83c.81 0 3.53-.33 8.16-1q6.35-.9 7.85-1.21c.07-.06.64-.43 1.72-1.1.87-.61 1.51-.84 1.91-.71a43.6 43.6 0 0 1 4.83 2.22q3.93 2 4.33 2.62 1.11 1.71-.6 4.23A5.54 5.54 0 0 1 491 144a16.12 16.12 0 0 1-4.33-1.1l-4.33-1.41q-3-.3-5.94-.41a21.52 21.52 0 0 0-5.84.41 5.92 5.92 0 0 0-2.52 3.12l2.22 1.21a4.36 4.36 0 0 1 1.71 1.61 3.17 3.17 0 0 1-.5 2.11 6.21 6.21 0 0 1-1.47 1.86 26.78 26.78 0 0 1-3.72 1 14.6 14.6 0 0 0-3.43 1.11l-.1 1a4 4 0 0 0 1.82-1.31 27.38 27.38 0 0 1 3.42.5c2.08.4 3.22.74 3.42 1q1.81 2.22-.7 4.33a12.36 12.36 0 0 1-5.74 2.72 4.48 4.48 0 0 0-2.12.7v4c1.08-.33 2.12-.7 3.13-1.11a28.31 28.31 0 0 0 2.51-1.31c.74-.4 2.18-.06 4.34 1 2 1 3.22 1.91 3.62 2.72a4.57 4.57 0 0 1-.4 2.32 6.72 6.72 0 0 1-1.21 2.41q-.81.71-5.14 1.11-3 .3-5.13.3l-1.21.61v12.89a52.76 52.76 0 0 1-.3 5.94 17.56 17.56 0 0 1-1.31 5.64 29.23 29.23 0 0 1-2.62 3.12c-1.48 1.61-2.49 2.45-3 2.52-1.35.2-2.62-.64-3.83-2.52l-2.92-4.83a5.81 5.81 0 0 0 2.22-1.51 5.34 5.34 0 0 0 1.21-2.22c.06-.47.1-2.89.1-7.25V179a14.41 14.41 0 0 0-3.43 1c-1.95.74-3 1.15-3.22 1.21a5.29 5.29 0 0 1-4-1.21 10.48 10.48 0 0 1-2.92-3.22l-1-1.51c2.35-.6 4.74-1.34 7.15-2.21 3.76-1.35 5.91-2.42 6.45-3.23a14.18 14.18 0 0 0 0-3.32c-2.35 1-3.66 1.55-3.93 1.61a6.51 6.51 0 0 1-4.23 0 8.7 8.7 0 0 1-1.91-1.71q-.81-.9-1.41-1.71a30.89 30.89 0 0 1 5.44-2.52 54.36 54.36 0 0 1 5.54-1.91 17.7 17.7 0 0 0-.11-2 31 31 0 0 0-4 .81 33.25 33.25 0 0 1-3.93.8 7.25 7.25 0 0 1-3.63-1.3 20.53 20.53 0 0 1-3.32-2.72 41.2 41.2 0 0 0 4.83-1.72l4.44-1.81c-.14-1.14-.27-2.31-.41-3.52l-6.34 1.91a26.36 26.36 0 0 0-5.74 2.62l-3.43 2.21a15.62 15.62 0 0 1-3.52 1.82c-2.28.4-4.2-.74-5.74-3.43-.54-1-1.58-3.59-3.12-7.75a94.55 94.55 0 0 0 10.77-1.51q8.35-1.41 10.88-2c.06-.06 1.17-.36 3.32-.9a12.19 12.19 0 0 1 3.33-.61l.2-8.15a29.15 29.15 0 0 0-.91-7.76 37 37 0 0 1-1.31-4.43 13.32 13.32 0 0 1-.3-4.73l.91-1.31a20.12 20.12 0 0 0 3 1.51 5.62 5.62 0 0 0 3 .3 36.42 36.42 0 0 1 4.63 3.83q3 2.93 3 4.53a7.9 7.9 0 0 1-1.51 2.62 22.21 22.21 0 0 0-1.71 2.52 25.44 25.44 0 0 0-.3 4.43v4.43a8.55 8.55 0 0 0 2.21-1.91q.51-.92.61-10.18.09-8.25-.1-10.27c-.21-1.47-.41-2.65-.61-3.52a19.79 19.79 0 0 0-.85-3.48zm-20.85 10.88a14.37 14.37 0 0 1 1.31 2 12.93 12.93 0 0 0 1.41 2.12l3.52 3.62q2.22 2.33 2.22 3.93a7.61 7.61 0 0 1-1.31 3.32c-.81 1.48-1.51 2.32-2.11 2.52-1.62.41-3.16-1.11-4.64-4.53a21 21 0 0 1-2-8.16 7.75 7.75 0 0 1 .6-2.41c.33-.89.66-1.67 1-2.41zm1.11 58.1q1.6.81 4 4.13a19.64 19.64 0 0 1 2.82 5.14 9 9 0 0 1 .2 3.42c-.2 1.61-.64 2.59-1.31 2.92q-2.22 1.11-5-1t-2.82-4.64a48.3 48.3 0 0 1 1-5 47.9 47.9 0 0 0 1.11-4.97zm20.64-34.33a7.9 7.9 0 0 0-2.31.4 7.46 7.46 0 0 1-2 .4 13.43 13.43 0 0 0 .3 2.52 10.68 10.68 0 0 1 .41 1.91c2.41-.47 3.76-.9 4-1.31s.07-1.64-.4-3.92zm11.28 34.44a30.53 30.53 0 0 1 8.06 2q4.83 1.81 6.14 4.33c.74 1.28.7 3.32-.1 6.14s-2 4.53-3.32 4.94q-2.11.9-4.74-2.32a25.82 25.82 0 0 1-3.22-5.94 35.46 35.46 0 0 1-1.61-4.53 47.56 47.56 0 0 1-1.21-4.62zm99.49-68.18a60.8 60.8 0 0 0 6.45 3.93q5.64 3.42 5.74 4.13a4.81 4.81 0 0 1-.3 2.41l-1 2.42c.74-.67 1.51-1.31 2.32-1.91.46-.07 1.91.47 4.33 1.61s3.79 1.88 4.12 2.42q2.12 3.32-3.32 9.46-1.71 2-9.06 8.66a5.76 5.76 0 0 0 1.31 1.61 8.79 8.79 0 0 0 3.62.3c1.88-.06 3.09.14 3.63.61a4.4 4.4 0 0 1 1.21 2 4.27 4.27 0 0 1 .5 2.42c-.14.87-1 1.75-2.72 2.62l-3.73 1.91v7.55a10.28 10.28 0 0 0 3.13-.9l2.41-1.41a5.94 5.94 0 0 1 2.52-1q1 0 5.14 2.62a23.21 23.21 0 0 1 4.73 3.42q1.2 1.11-.3 2.82a12.81 12.81 0 0 1-3.33 2.62q-2.52.3-6.84 1.11-4.93.9-6.75 1.11l-1.41.6q0 12.69-.5 17.82-1 13.31-4.74 15.41l-1.61.3q-1.3-2.72-2.31-15.4l-1-15.71c-2.15.33-3.69.6-4.63.8a35 35 0 0 0-4.13 1.41 31.21 31.21 0 0 1-3.22-1.51v11.08a9.25 9.25 0 0 1-3.33 4.73c-2.08 1.75-3.76 2.38-5 1.92a19.46 19.46 0 0 0-2.22-3.13l-2.11-2.82-1.11-.7c2.08-1.54 3.22-3.93 3.42-7.15l-.2-9.06a11.52 11.52 0 0 0-3.32 1.61 26.42 26.42 0 0 1-3.32 2 8 8 0 0 1-3.43.3 19.51 19.51 0 0 1-3.52-.7 23.78 23.78 0 0 1-.71 9.06c-.94 3.22-2.52 5.41-4.73 6.55a25.76 25.76 0 0 1-3.83 1.21 105 105 0 0 0 4.13-19.84q.3-4 .3-20.24a8.08 8.08 0 0 0-.5-3.12l3.93-2.12a31.46 31.46 0 0 0 4-2.42c1.35-2.35 2.82-4.8 4.44-7.35 1.34-2.08 2.92-4.49 4.73-7.25a9.28 9.28 0 0 0-2.32-1.51c-.8-.13-1.61.44-2.41 1.71l-1.72 2.72a20.79 20.79 0 0 1-6.94 4.33 20.17 20.17 0 0 1-8.36.71q4.72-6.24 8.56-12.29 5.24-8.55 5.94-13.39l5.54 4.93q3.72 3.63 3.22 5.44c-.61.81-1.24 1.68-1.91 2.62a11.16 11.16 0 0 0 2.92-1.81c.33-.34 1.07-1.21 2.21-2.62a25.48 25.48 0 0 1 6.35 3.72 4.82 4.82 0 0 1 1 5.74c-.54 1.21-2.28 3-5.23 5.44l-6.35 5-1.21 1.31a25.23 25.23 0 0 1 4.13-1.61 7.4 7.4 0 0 1 4.23-.31 9.58 9.58 0 0 1 4.53 3.53c1.61 2.08 2 3.69 1.21 4.83a19.15 19.15 0 0 0-2.21 3.12q0 3.44.1 9.37c.06 4 .1 7.08.1 9.36a2.19 2.19 0 0 0 2-2.11 5.74 5.74 0 0 0-1.31-3.22 4.85 4.85 0 0 1 4.74-.91 6 6 0 0 1 3.82 3.73 17.79 17.79 0 0 1 2.12-.81 11.16 11.16 0 0 0 2.11-.81v-5.94a17.51 17.51 0 0 1-7 .51 11.66 11.66 0 0 1-5.84-3.43 7.11 7.11 0 0 1 2.32-2.41 21.07 21.07 0 0 0 2.72-2l5.54-8.66q3.12-4.94 5.23-8.86c-.27.14-1.44 1.07-3.52 2.82a18.14 18.14 0 0 1-3.63 2.62 7.55 7.55 0 0 1-7-.61q-3.62-2-3.12-5.43.3-2.22 5.44-10.18 5.34-8.25 5.84-10.17a25.64 25.64 0 0 0 .28-3.29zm-33.23 52.67c0 .54 0 1.64-.1 3.32s-.1 2.89-.1 3.63a10.34 10.34 0 0 0 3.12-2.82 7 7 0 0 0 .81-3.83 13.61 13.61 0 0 1-3.73-.3zm2.42-11.48a18.32 18.32 0 0 0-1.81 8.15l1.91-.8a3.4 3.4 0 0 0 1.61-1.41 4.67 4.67 0 0 0 .7-3.42 4.91 4.91 0 0 0-2.41-2.52zm10.57-5.14c-1.68.4-2.85.71-3.52.91a18.5 18.5 0 0 0-3.22 1.71 4.69 4.69 0 0 1 2.51.5 7.53 7.53 0 0 1 1.71 3.63 15.68 15.68 0 0 1 3 .91c0-2.15 0-3.46-.1-3.93a15.36 15.36 0 0 0-.38-3.73zm0 12.39a5 5 0 0 0-1.81 1 7.77 7.77 0 0 0-1.81 1.3 11.74 11.74 0 0 0-.81 3.53 13 13 0 0 1 2.52-.71c.67.34 1.27.68 1.81 1v-3c.07-1.07.1-2.07.1-3.07zm22.46-11.08a26.93 26.93 0 0 0-2.22 2.72l1-.3a2.26 2.26 0 0 0 1.22-2.42zm53.97 3.22a59.77 59.77 0 0 1 6.85.51q5.75.6 6.45 1.61 1.71 2.22-.2 5.13t-4.54 2.22q-1.41-.41-4.83-4.33c-2.15-2.48-3.39-4.23-3.73-5.14zm37.16-36.45c4.77.94 7.72 1.61 8.87 2 3.49 1.15 5.7 2.72 6.64 4.74.47 1 .51 2.82.1 5.43l-1.21 5.74a22.86 22.86 0 0 0 2.32-.6 17.61 17.61 0 0 1 2.62-.6c1.81-.21 4.33.27 7.55 1.41s5.47 2.25 6.75 3.52a7.59 7.59 0 0 1 1.31 3.53 20.52 20.52 0 0 1-2.42 3.72l-2.72 3.47a13.16 13.16 0 0 0-1.61 3l6.65-.1a30.17 30.17 0 0 1 6.74.5l2.92 1a3.37 3.37 0 0 1 1.92 1.91c.2.87-.17 2.21-1.11 4a8.27 8.27 0 0 1-2.42 3.32q-1.2.81-6.44.81l-6.55-.21c-.54 0-2.65.31-6.34.91l-6.65 1.21a31.13 31.13 0 0 0-3.42.5 15.74 15.74 0 0 0-3.33.71c-.6.27-1 1.14-1.3 2.62l-.51 3.42a54.42 54.42 0 0 1-4.23 11 27.24 27.24 0 0 1-6.64 8.86 10.75 10.75 0 0 1-3.13 1.71 19.34 19.34 0 0 1-3.32 1.11q-.71.19-3.93.6-3 .3-3.42.3a29.28 29.28 0 0 0 5.84-5.23q1.82-2.11 4.63-6.15.4-.69 2.12-4.43t2-4.53a16.24 16.24 0 0 1 .61-2.92 12.69 12.69 0 0 0 .5-2.72l-7.35 2.62q-5.14 1.62-7 .3a5.6 5.6 0 0 1-2-2 7.84 7.84 0 0 1-1.21-2.82 66.33 66.33 0 0 0-2.42 7.65c-.67 2.49-1.31 4.9-1.91 7.25l-1.2 2.52a3.53 3.53 0 0 0-.2 2.82 9.92 9.92 0 0 1 .7 2.32 18.11 18.11 0 0 1 .3 2.51 11.9 11.9 0 0 1-1.2 3.33c-.81 1.88-1.38 2.85-1.72 2.92q-1.71.49-4.12-2.92a45.18 45.18 0 0 1-2.93-5.54 30.21 30.21 0 0 1-1.3-3.63 24 24 0 0 1-.91-3.62q2 0 4.43-2.32l3.83-4.13q.39-.5 3-5 2.71-4.74 2.82-5a13.5 13.5 0 0 1 1.91-3c.61-.53 3.89-1.64 9.87-3.32l9.87-2.92a10.93 10.93 0 0 0 .7-3.83c.07-2.08-.06-3.35-.4-3.82a10.56 10.56 0 0 0-2.52-1.52 17.37 17.37 0 0 1-3.32-3.12 11.65 11.65 0 0 1-2.11-3.62l-.31-1.92q.21 0 4.63-1.71 3.63-1.31 4.94-1.71l.1-5.24a46.7 46.7 0 0 0-.3-5.33c-.14-.94-.44-2.59-.91-4.94a21.63 21.63 0 0 0-1.15-4.82zm-21.65 10q2.52-.3 5.94 3.52c2.29 2.56 3.26 4.67 2.92 6.35s-2 3-4.73 3.62a10.94 10.94 0 0 1-6.64-.2c-1.28-.47-2.89-1.74-4.84-3.83a17.12 17.12 0 0 1-3.52-5.23 12.64 12.64 0 0 0 2.21-.3 10 10 0 0 0 2.22-.71c.33-.13 1.41-.74 3.22-1.81a10.92 10.92 0 0 1 3.22-1.44zM670.87 172a63.77 63.77 0 0 1 7.46 2.62 51.88 51.88 0 0 1 7.25 3.62 36.72 36.72 0 0 1 7.55 6.05 26.88 26.88 0 0 1 5.44 7.85 17.08 17.08 0 0 1 1.51 5.94 5 5 0 0 1-2.52 4.43 16.25 16.25 0 0 1-3.12 1.21c-.61 0-1.38-.54-2.32-1.61l-1.91-2.32q-8-8.46-10.07-10.87-6.75-7.65-8.26-11.58a15.73 15.73 0 0 1-.7-2.72 19.35 19.35 0 0 1-.31-2.62zm8.87-29.41a28.12 28.12 0 0 1-3.83 1.11c-1.54.4-2.45 1-2.72 1.92a21.22 21.22 0 0 0-.6 4c-.14 1.88-.2 3.19-.2 3.93a10.09 10.09 0 0 1 2.41-.4 4 4 0 0 0 2.22-.71l.6-.9a15.49 15.49 0 0 0 1.51-4.33 21.59 21.59 0 0 0 .61-4.58zm73.01-25.33a12.69 12.69 0 0 1 3.92.4c2.15.47 3.39.87 3.73 1.21a12.52 12.52 0 0 1 1.21 2.92 82.3 82.3 0 0 0-1.92 9.16q-.81 4.74-1.51 9.27a22 22 0 0 0 3.13-1.31c1.54-.67 2.61-1.11 3.22-1.31a38.79 38.79 0 0 1-3.63 8.56 39.39 39.39 0 0 1-5.74 7.45 21.26 21.26 0 0 1-2.82 2.72 16.45 16.45 0 0 1 4 1.31c.6.2 1.81.74 3.63 1.61.73.34 2.28 0 4.63-.91a20.7 20.7 0 0 0 4.63-2.31c.54-.54 1.07-1 1.61-1.51s2.25.1 5.14 1.31 4.29 2 4.63 2.51c.6.95.37 2.56-.71 4.84q-2.1 4.83-2.21 5.33a17.82 17.82 0 0 0 .5 4.84c.41 2.21.34 3.66-.2 4.33q-1.6 2-9.77 3.22l-10.77 1.21c-1.14-.47-2.59-2.85-4.33-7.15q-.71-1.71-2.72-8a20.72 20.72 0 0 1-.5-3.82 9.81 9.81 0 0 1 .2-3.93l-2.22.2a3.58 3.58 0 0 1-1.91-.2 9.46 9.46 0 0 1-2-3.32l-1.41-3.43a21.45 21.45 0 0 0 4-2.61 39.39 39.39 0 0 0 3.63-2.72 3.49 3.49 0 0 0 1-2.72l-.21-3.23h-2a6.79 6.79 0 0 1-2.12-.4 10.23 10.23 0 0 1-2.31-1.71l-1.81-2-.31.5q-.71 12.89-.7 22l.1 21.65a16.06 16.06 0 0 1-1.71 5.74 22.22 22.22 0 0 1-3.73 4.94 19.46 19.46 0 0 1-4.73-11.48v-13.21q.9-17.53.9-21.55-.09-7.16-1.61-21c.81-2.22 1.28-3.46 1.41-3.73.74-1.74 1.45-2.75 2.12-3a5 5 0 0 1 3.32-.1 16.31 16.31 0 0 1 3.32 1.41 6.83 6.83 0 0 0 3.43 1 15.8 15.8 0 0 0 3.93-.61 11 11 0 0 0 2.11-1.2 5.86 5.86 0 0 1 2.16-1.17zm-2.22 6.95c-.14.06-1.34.33-3.63.8-1.67.34-2.61.74-2.82 1.21-.2.94-.47 2.28-.8 4s-.5 3-.71 3.93a12.39 12.39 0 0 0 4.33-.21 7.06 7.06 0 0 1 4.13.41l.21-5.24a18.19 18.19 0 0 0-.71-4.9zm17.82 38.57a14 14 0 0 0-4.23 1.3 40.32 40.32 0 0 0-3.72 1.62 17.62 17.62 0 0 0 .3 3.22 17.44 17.44 0 0 0 .81 2.72H764a3.93 3.93 0 0 0 2.32-1c.34-.4.7-1.71 1.11-3.93a33.45 33.45 0 0 1 .92-3.93zm20-48.64a13.26 13.26 0 0 1 3.73 1.3 28.64 28.64 0 0 1 3.52 1.62 6.34 6.34 0 0 1 1.92 2.51 7.24 7.24 0 0 1 .7 2.82 223.08 223.08 0 0 0 1.11 30.72q1.9 20.94 1.91 30.91a23.63 23.63 0 0 1-2.21 7.25c-1.35 2.82-3 4.74-4.94 5.74a21.39 21.39 0 0 1-3.72 1.41 13.9 13.9 0 0 1-3.73.81q-1.81-.3-3.72-4.13c-1.68-3.22-2.56-4.9-2.62-5 1.21 0 2.18 0 2.92-.1a4.19 4.19 0 0 0 2.52-.9c.46-.47.7-1.48.7-3l-.3-3.43q0-6-.2-17.72t-.2-17.72q-1.42 1.71-5.14 1.81c-2.62.07-4.5.6-5.64 1.61a10.36 10.36 0 0 1-2.92 2.12c-1.28 0-2.35-1.52-3.22-4.54a28.54 28.54 0 0 1-1-7.25c0-.47.1-2.41.3-5.84s.41-5.57.41-6.24l-.21-6c.14-2.35.94-3.9 2.42-4.64a69.08 69.08 0 0 0 7.55-.7c4-.4 6.51-.81 7.46-1.21a23 23 0 0 1 2.64-2.21zm-2.61 19.13c-.61.4-1.28.8-2 1.21s-1.37.94-1.71 1.21a15.59 15.59 0 0 1-2.92.7 6 6 0 0 0-2.62 1.21 5.32 5.32 0 0 0-1 3v3.12a36.6 36.6 0 0 0 5-1.31c2.68-.8 4.29-1.14 4.83-1l1 .9a43.26 43.26 0 0 0-.3-4.63 42.06 42.06 0 0 1-.24-4.41zm-.11-12.39a15.27 15.27 0 0 0-4.83 1.41l-4.23 1.61v7c1.61 0 3.12-.06 4.53-.2l4.64-.8c0-1.14 0-2.66-.11-4.54zm71.14 27.19a5.8 5.8 0 0 1 4.63 1.11 3.05 3.05 0 0 1 1.11 3.83c-.13.53-1 1.27-2.52 2.21a28.15 28.15 0 0 0-3 1.92 2.83 2.83 0 0 0-.5 2.41c.33 1.82.5 2.76.5 2.82a9.5 9.5 0 0 1 6.55-1.11c2.15.48 2.78 1.65 1.91 3.53-.4.94-1.58 1.78-3.52 2.52l-4.54 1.61v7.85q1.51.4 6.55 2.32 2.12.81 6.45 2.52c.8.33 3.69 1.14 8.65 2.41s7.79 1.88 8.87 2l12 1.71q9.68 1.41 11.38 2.62a26.29 26.29 0 0 0 2.82 1.21 22 22 0 0 1-4.94 4.12 43.73 43.73 0 0 1-5.63 2.92 25.64 25.64 0 0 1-4.54 2c-2.61 1-4.16 1.58-4.63 1.71q-3.63 1.31-9.36-.91a67.46 67.46 0 0 1-9.07-4.73c-.47-.34-2.48-1.54-6-3.62q-4.64-2.82-6-3.63l-9.57-5.13a100.55 100.55 0 0 0-10.17-5 57.54 57.54 0 0 1-4.83 6.34 14.74 14.74 0 0 1-6.15 4.43c-.26.07-1.07.24-2.41.51a21.79 21.79 0 0 1-2.52.4 56.33 56.33 0 0 0 5.44-6.85 69.47 69.47 0 0 0 4.73-7.55 17.74 17.74 0 0 0 2.22-5 10.71 10.71 0 0 0-.1-5.24 5.71 5.71 0 0 1 5.13.6 4.22 4.22 0 0 1 1.92 4.23 14.57 14.57 0 0 1-.71 2.82c1.14.34 2.32.67 3.53 1v-12.81l-6.25 3.22a53 53 0 0 1-6.14 3 7.7 7.7 0 0 1-5.74-1.1 10.23 10.23 0 0 1-4-4.23q.9-.3 8.16-4t8.26-4.23l5.84-3.63c3.2-2.02 5.32-3.06 6.19-3.13zm-2-31.82a13 13 0 0 1 8.25 1c3.23 1.27 4.64 3 4.23 5.13a17.44 17.44 0 0 1-1.71 3.43c-.07.13-.74 1.21-2 3.22l-2.82 8.66q-2 5.84-4.23 7.85a31.94 31.94 0 0 1-3.53 2.42 17 17 0 0 1-3.52 2c-1.14.2-2.86-.31-5.14-1.51a38.19 38.19 0 0 1-4.93-3.23 6.85 6.85 0 0 0 2.11-.5c.54-.2 1.21-.47 2-.81q-.21-1.41-2.32-8.76l-2.52-8.66c-.4-1.27-.77-2.48-1.1-3.62a17.47 17.47 0 0 1-.61-3.63c2.08 0 3.83 0 5.24-.1a21 21 0 0 0 5.34-.6c.6-.27 1.81-.71 3.62-1.31a34.6 34.6 0 0 1 3.63-.98zm-1.51 5.24a13.51 13.51 0 0 1-2.92 1.41 20.62 20.62 0 0 1-3 .8l.81 2.82a9.76 9.76 0 0 0 .91 2.22 3.77 3.77 0 0 0 2 .5c1.14.2 2 .37 2.52.5v-4.12c-.1-1.75-.2-3.13-.33-4.13zm-4.54 14a17.81 17.81 0 0 0-.7 3.23c-.34 1.41-.57 2.45-.71 3.12.67-.2 1.75-.61 3.23-1.21 1.67-.74 2.72-1.17 3.12-1.31a3.38 3.38 0 0 1 .5-2.31 7.94 7.94 0 0 0-2 .5 7.8 7.8 0 0 1-2.12.5 12.6 12.6 0 0 0-1.33-2.53zM891 114q3.53-.51 6.24 3c1.88 2.41 1.88 4.33 0 5.74q-.71.6-7 2.11-4.32 1-7.35 1.61a22 22 0 0 0-2.82 1.21 7.76 7.76 0 0 1 1.92 1.41 2.9 2.9 0 0 1 .9 1.81c1.34-.47 2.42-.84 3.22-1.1a7.61 7.61 0 0 1 7.76.8q3.42 1.51 3.93 2.62a24.63 24.63 0 0 1-.21 5c-.33 3.29-.5 5-.5 5.14 0 .34.07 2.48.2 6.45s.3 6.1.3 6.44v7.45q-.3 5.15-1.71 6.85a16.22 16.22 0 0 0-1.81 1.91 14.69 14.69 0 0 0 2.62 1.11 8.24 8.24 0 0 1 2.82 1.21q1.6 1.6 1.11 5.24t-2.72 4.23q-.92.19-4.53-2.52l-4.24-3.43q-2.72-1.41-4.22-2.31a34.72 34.72 0 0 1-4.33-2.72c.2 0 1.37-.13 3.52-.4a19.68 19.68 0 0 0 3.93-.61c-.81-1.07-1.35-1.81-1.61-2.21a6.36 6.36 0 0 1-1.21-2.52 11.75 11.75 0 0 0-2.82.6 16.19 16.19 0 0 0-2.62.91c-.34.13-1 1.34-2.11 3.62a27.14 27.14 0 0 1-2 3.83 11.61 11.61 0 0 1-4.23 3.12 8.61 8.61 0 0 1-5 .81q.7-1.11 2.61-4.43c1.08-1.88 1.88-3.33 2.42-4.33l1-1.31a9.47 9.47 0 0 1-2.52 1.21 23.1 23.1 0 0 1-3.52-9.37 61 61 0 0 1 0-10.27c.06-.4.1-1.78.1-4.13.06-1.21.1-2.58.1-4.13 0-.74-.1-2.28-.3-4.63s-.31-4-.31-4.63l2.92-.81a4.84 4.84 0 0 0 2.22-1.51 21.91 21.91 0 0 0 1.61-2.42 22.7 22.7 0 0 1 1.61-2.31 13.29 13.29 0 0 1-2.21-3.53l-1.92-4a65.09 65.09 0 0 0 8.36-1.51 53.63 53.63 0 0 0 8.36-2A14.78 14.78 0 0 0 889 115a6.58 6.58 0 0 1 2-1zm-4.43 22a57.62 57.62 0 0 0-5.74 1.91q-2.42 1-5 2.22V142c1.48-.33 2.55-.6 3.22-.81 1.08-.2 2.05-.36 2.93-.5a4.7 4.7 0 0 1 3.92 1.31 3 3 0 0 1 .71 3.63q-1.11 2.42-4.53 2.21a17.64 17.64 0 0 1-6.25-1.61v6.24a7.59 7.59 0 0 0 2.52-.8l2.52-1.11a5 5 0 0 1 5.44 1.11c-.27 1.21-.58 2.45-.91 3.72q-1.11 2.12-4.43 2.72a17.66 17.66 0 0 1-5.64-.1v5.64a24.59 24.59 0 0 1 4.83-2.21c2.15-.88 3.9-1.51 5.24-1.92q.4-3.42.8-11.78.38-7.32.38-11.74z" fill="#542b0a"/><path d="M130.77 59l24.95 36h20.68l-31.66-45.67c-5.72-8.25-4.25-17.86-1.25-23.59 1.71-3.26 5.63-8.74 12.73-8.74h601.63c7.09 0 11 5.48 12.73 8.74 3 5.73 4.47 15.34-1.25 23.59L737.67 95h20.68l24.95-36c16.61-24 1.49-59-25.45-59H156.22c-26.95 0-42.07 35.05-25.45 59zm337.74 424.3c-3 4.31-7.06 6.69-11.48 6.69s-8.49-2.38-11.48-6.69L356.61 355h-20.68l95.65 138c12.94 18.67 38 18.67 50.9 0l95.65-138h-20.68z" fill="#ffe06f"/></g></g></svg>