<svg xmlns="http://www.w3.org/2000/svg" viewBox="0 0 54 57.06"><g id="图层_2" data-name="图层 2"><g id="图层_1-2" data-name="图层 1"><path id="_路径_" data-name="&lt;路径&gt;" d="M54 0c-1.15 5.19-4 9.8-7.49 12.1a58.21 58.21 0 0 1-7.11 3.33 31.78 31.78 0 0 0-5.49 2.2c-1.37.87-3.53 2.46-3.53 4.27a12.47 12.47 0 0 1 2.88-2.3 25.38 25.38 0 0 1 6.82-2.18 23.52 23.52 0 0 0 5.94-2 19.11 19.11 0 0 0 5.1-3.31c1.15-1.15 2.3-2.3 2.3-4a8 8 0 0 1 0 5.19c-1.15 3.46-4 6.34-8.64 8.07-3.45 1.73-8.06 2.3-9.22 6.91a7.41 7.41 0 0 1 1.73-1.15 17.21 17.21 0 0 1 5.76-2.3c4.14-1 8.81-3 10.31-7.33a15 15 0 0 1-1.09 5.83 11.08 11.08 0 0 1-5.35 5.18c-2.59 1.34-5.42 1.76-7.9 3.81a8 8 0 0 0-1.73 2.3c.29-.58 5.89-1.15 7.24-1.42a5.8 5.8 0 0 0 2-.72 9.27 9.27 0 0 0 1.69-1.28 14.3 14.3 0 0 1-2.35 4.95 11.65 11.65 0 0 1-4.14 2.59c-1.7.77-3.41 1.53-5.17 2.17a27.46 27.46 0 0 0-2.79.9 3.3 3.3 0 0 0-1.53 1.4A4.29 4.29 0 0 0 32.1 46a15.12 15.12 0 0 0 .57 2c.11.32.3.6.43.9a4.64 4.64 0 0 1-3.1-1.18 5 5 0 0 1-1.7-3.22c-.4-4 1.76-7.78.82-11.79-1.53-6.51-9.22-8.19-14.87-6.77.28-.07 2 2 2.26 2.3.74.79 1.48 1.59 2.15 2.45 2.37 3.08 5.08 6.23 6.26 10a13.53 13.53 0 0 1-.81 10A12.4 12.4 0 0 1 16 57.06c2.3-2.3 3.45-4.61 3.45-6.91 0-4.61-2.88-9.22-5.76-12.68-1.94-1.95-4-4.3-6.32-5.74a15.68 15.68 0 0 0-1.69 4.84c-.22 2.36 1.13 5.08 2.68 6.8 1.24 1.36 3.9 3.25 5.91 2.74-2.12.53-4.05 1-6.24.55C.29 45-1.51 35.56 1.16 29.15c.31-.76 1.5-2.78 1.37-3.27a9.79 9.79 0 0 0-.59-1.43c-2.51-5.46.84-11 5.39-14.07l3.46-1.73a.57.57 0 0 1-.58-.58c-.57 0-.57 0-1.15-.58h6.58l-2.23 1.36a11.94 11.94 0 0 0-2.3 1.83A8.36 8.36 0 0 0 9.66 13 7.67 7.67 0 0 0 9 16a13.88 13.88 0 0 0 .58 3.2l.09.37c8.06-5.77 20.74-6.34 31.11-10.38A31.81 31.81 0 0 0 50.54 4C51.7 2.88 52.85 1.15 54 0z" fill="#bf1a20" fill-rule="evenodd"/></g></g></svg>